<svg xmlns="http://www.w3.org/2000/svg" viewBox="0 0 1839.22 224.29"><defs><style>.cls-1{fill:#2345d8;}</style></defs><g id="Layer_2" data-name="Layer 2"><g id="Layer_1-2" data-name="Layer 1"><path class="cls-1" d="M538.85,44.12h39.21V62.21A58,58,0,0,1,598.27,47a64,64,0,0,1,27.15-5.58,72.62,72.62,0,0,1,32.88,7.69,60.46,60.46,0,0,1,24.58,22.32q9.21,14.64,9.21,33.94V204H652.87V115.61a41.42,41.42,0,0,0-4.67-20.06,32.25,32.25,0,0,0-12.82-13.13,36.13,36.13,0,0,0-17.8-4.52,37.31,37.31,0,0,0-20.66,5.73A38.9,38.9,0,0,0,583,99.32a49.18,49.18,0,0,0-5,22.32V204H538.85Z"/><path class="cls-1" d="M791.63,206.4a82.15,82.15,0,0,1-82.35-82.35,80.74,80.74,0,0,1,11.16-41.63,82.36,82.36,0,0,1,30.16-30,80.47,80.47,0,0,1,41-11,79.16,79.16,0,0,1,36.65,8.75,82.83,82.83,0,0,1,28.65,24.13,81.79,81.79,0,0,1,15.24,34.09,72.79,72.79,0,0,1,.3,30.16H748.19a40.52,40.52,0,0,0,8.3,18.1,38.25,38.25,0,0,0,15.38,11.31,51.46,51.46,0,0,0,19.76,3.77,60.49,60.49,0,0,0,22.47-4.37,52,52,0,0,0,18.55-12.22L867,164.47q-9.66,19-31.07,30.47A92.84,92.84,0,0,1,791.63,206.4Zm42.53-97.73a42.91,42.91,0,0,0-22.77-28.21,45,45,0,0,0-20.06-4.37,45.88,45.88,0,0,0-20.21,4.37,41.6,41.6,0,0,0-14.93,11.92,42.47,42.47,0,0,0-8,16.29Z"/><path class="cls-1" d="M968.09,206.4a78.57,78.57,0,0,1-41.18-11.31,83.77,83.77,0,0,1-29.86-30.32,82.2,82.2,0,0,1,0-82.19,83,83,0,0,1,29.86-30,81.54,81.54,0,0,1,82.35,0,83.88,83.88,0,0,1,30,30.17,81.52,81.52,0,0,1,0,82.34,83.88,83.88,0,0,1-30,30.17A79.36,79.36,0,0,1,968.09,206.4Zm0-35.9a43.52,43.52,0,0,0,23.07-6.33,47.22,47.22,0,0,0,16.59-17,47.25,47.25,0,0,0,0-46.76,47.3,47.3,0,0,0-16.59-17A43.53,43.53,0,0,0,968.09,77,42.8,42.8,0,0,0,945,83.48a47.83,47.83,0,0,0-16.44,17,46,46,0,0,0-6,23.23,46.84,46.84,0,0,0,6,23.38,45.67,45.67,0,0,0,16.59,17A43.79,43.79,0,0,0,968.09,170.5Z"/><path class="cls-1" d="M1144.85,206.4a82.15,82.15,0,0,1-82.35-82.35,80.74,80.74,0,0,1,11.16-41.63,82.31,82.31,0,0,1,30.17-30,80.41,80.41,0,0,1,41-11,78,78,0,0,1,46,14.33,80.63,80.63,0,0,1,29.41,37.86l-35.9,10a44.61,44.61,0,0,0-15.68-19.46,40.61,40.61,0,0,0-23.83-7.39,42.8,42.8,0,0,0-23.08,6.49,47,47,0,0,0-16.44,17.34,48.92,48.92,0,0,0,0,47.06,45.79,45.79,0,0,0,16.44,17.19,43.47,43.47,0,0,0,23.08,6.34,40.35,40.35,0,0,0,24-7.39,45.19,45.19,0,0,0,15.53-19.16l35.9,10A81.18,81.18,0,0,1,1191,192.07Q1170.78,206.4,1144.85,206.4Z"/><path class="cls-1" d="M1314.37,206.4a78.57,78.57,0,0,1-41.18-11.31,83.85,83.85,0,0,1-29.86-30.32,82.2,82.2,0,0,1,0-82.19,83,83,0,0,1,29.86-30,81.54,81.54,0,0,1,82.35,0,83.88,83.88,0,0,1,30,30.17,81.52,81.52,0,0,1,0,82.34,83.88,83.88,0,0,1-30,30.17A79.36,79.36,0,0,1,1314.37,206.4Zm0-35.9a43.52,43.52,0,0,0,23.07-6.33,47.22,47.22,0,0,0,16.59-17,47.25,47.25,0,0,0,0-46.76,47.3,47.3,0,0,0-16.59-17A43.53,43.53,0,0,0,1314.37,77a42.8,42.8,0,0,0-23.08,6.49,47.83,47.83,0,0,0-16.44,17,46,46,0,0,0-6,23.23,46.84,46.84,0,0,0,6,23.38,45.67,45.67,0,0,0,16.59,17A43.79,43.79,0,0,0,1314.37,170.5Z"/><path class="cls-1" d="M1470.31,206.4q-23.22,0-41.62-11.61t-18.4-38.46q0-16.89,7.69-27.9t22.32-16.29q14.63-5.28,34.54-5.28h47.05V98.11q0-12.06-9.65-17.8t-25.34-5.73q-13.28,0-22.77,4.38a22.33,22.33,0,0,0-12.52,14.93l-37.4.3a44.33,44.33,0,0,1,10-27.9q9.66-11.91,25.94-18.4A96.08,96.08,0,0,1,1486,41.4a98.84,98.84,0,0,1,36,6.49q16.74,6.48,26.84,18.25A40.81,40.81,0,0,1,1559,93.59V204h-37.11V184.08q-6.33,8.44-19.9,15.38T1470.31,206.4Zm3.32-32a52,52,0,0,0,22.93-5.43,51.38,51.38,0,0,0,18.25-14.48,31.6,31.6,0,0,0,7.08-19.91h-39.81q-11.47,0-19,3t-11,8.15a16.36,16.36,0,0,0-2.56,11.76q.9,9.06,7.84,13A32.53,32.53,0,0,0,1473.63,174.43Z"/><path class="cls-1" d="M1650.09,206.4a117.5,117.5,0,0,1-32.58-4.68,145.06,145.06,0,0,1-32.88-14.32V147.88q11.77,9,30,16.74t35.44,7.69a46.48,46.48,0,0,0,13-1.66,22.75,22.75,0,0,0,9.2-4.82,10.38,10.38,0,0,0,3.47-8q0-7.23-8.9-11.61t-30-8.9q-29-6-42.53-17t-13.58-30a41.8,41.8,0,0,1,8.6-26.25q8.6-11.14,23.53-16.89t33.63-5.73a103.46,103.46,0,0,1,32.28,4.83A176.83,176.83,0,0,1,1708,58.9V94.19q-17.51-10.56-33.34-14.93t-28.2-4.38a42.16,42.16,0,0,0-13.57,2,21,21,0,0,0-8.9,5.43,11.19,11.19,0,0,0-3.17,7.7q0,6,6.19,9.35t20.36,6a69,69,0,0,0,8,2c2.71.5,5.58,1.16,8.6,2q27.13,6.95,39.36,19t12.22,30.17q0,24.74-19.46,36.35T1650.09,206.4Z"/><path class="cls-1" d="M1839.22,202.78q-24.73,6.93-44.79,3.32t-31.68-17.5q-11.61-13.86-11.61-37.1l.3-73.6h-29V44.12h29V6.71h38.61V44.12h47.36V77.9h-47.36l-.3,73.3a17.32,17.32,0,0,0,5.58,13.12q5.58,5.28,16.74,5.88t27.15-5.43Z"/><path class="cls-1" d="M331.66,185.15c-28.77,44.55-101.28,54-136.84,13-10.63-12.28-17.71-20.4-22.1-26.38a3,3,0,0,1,4.3-4.23c18.84,13.77,48.86,24.62,82.38-27.29L334.9,23.33A51,51,0,0,1,380.08.05l67.08,3a1.19,1.19,0,0,1,.95,1.84L331.66,185.15"/><path class="cls-1" d="M116.64,39.14c28.77-44.55,101.28-54,136.84-13,10.64,12.28,17.72,20.39,22.11,26.38a3,3,0,0,1-4.3,4.23C252.44,43,222.43,32.16,188.9,84.06L113.4,201a51,51,0,0,1-45.18,23.27L1.15,221.28a1.2,1.2,0,0,1-1-1.85L116.64,39.14"/></g></g></svg>