<?xml version="1.0" encoding="UTF-8"?>
<svg xmlns="http://www.w3.org/2000/svg" xmlns:xlink="http://www.w3.org/1999/xlink" width="200px" height="25px" viewBox="0 0 205 25" version="1.1">
<g id="surface1">
<path style=" stroke:none;fill-rule:nonzero;fill:rgb(13.72549%,27.058824%,84.705882%);fill-opacity:1;" d="M 60.109375 4.917969 L 64.476562 4.917969 L 64.476562 6.933594 C 65.089844 6.210938 65.859375 5.632812 66.726562 5.238281 C 67.675781 4.8125 68.707031 4.601562 69.746094 4.617188 C 71.019531 4.609375 72.273438 4.902344 73.410156 5.472656 C 74.535156 6.03125 75.484375 6.894531 76.144531 7.960938 C 76.828125 9.050781 77.171875 10.3125 77.171875 11.746094 L 77.171875 22.738281 L 72.804688 22.738281 L 72.804688 12.886719 C 72.820312 12.109375 72.644531 11.339844 72.285156 10.648438 C 71.960938 10.035156 71.464844 9.527344 70.855469 9.1875 C 70.25 8.851562 69.566406 8.675781 68.875 8.683594 C 68.0625 8.664062 67.261719 8.886719 66.574219 9.320312 C 65.910156 9.75 65.371094 10.355469 65.023438 11.070312 C 64.648438 11.84375 64.457031 12.695312 64.46875 13.558594 L 64.46875 22.738281 L 60.109375 22.738281 Z M 60.109375 4.917969 "/>
<path style=" stroke:none;fill-rule:nonzero;fill:rgb(13.72549%,27.058824%,84.705882%);fill-opacity:1;" d="M 88.253906 23.007812 C 85.820312 23.011719 83.484375 22.046875 81.761719 20.324219 C 80.042969 18.601562 79.078125 16.261719 79.085938 13.828125 C 79.070312 12.195312 79.5 10.59375 80.328125 9.1875 C 81.132812 7.796875 82.292969 6.644531 83.683594 5.84375 C 85.070312 5.03125 86.644531 4.609375 88.25 4.617188 C 89.667969 4.609375 91.066406 4.941406 92.328125 5.59375 C 93.582031 6.234375 94.675781 7.152344 95.519531 8.28125 C 96.371094 9.398438 96.949219 10.699219 97.214844 12.082031 C 97.460938 13.1875 97.472656 14.332031 97.25 15.441406 L 83.414062 15.441406 C 83.550781 16.183594 83.867188 16.875 84.339844 17.460938 C 84.796875 18.019531 85.382812 18.453125 86.050781 18.722656 C 86.75 19.003906 87.5 19.148438 88.253906 19.140625 C 89.109375 19.140625 89.957031 18.976562 90.753906 18.65625 C 91.53125 18.355469 92.238281 17.890625 92.820312 17.292969 L 96.644531 18.332031 C 95.925781 19.746094 94.773438 20.875 93.183594 21.730469 C 91.671875 22.558594 89.976562 23 88.253906 23.007812 Z M 92.988281 12.113281 C 92.648438 10.742188 91.71875 9.589844 90.453125 8.96875 C 89.753906 8.636719 88.992188 8.46875 88.21875 8.480469 C 87.441406 8.46875 86.671875 8.636719 85.96875 8.96875 C 85.320312 9.277344 84.75 9.730469 84.304688 10.296875 C 83.882812 10.832031 83.578125 11.449219 83.414062 12.113281 Z M 92.988281 12.113281 "/>
<path style=" stroke:none;fill-rule:nonzero;fill:rgb(13.72549%,27.058824%,84.705882%);fill-opacity:1;" d="M 107.898438 23.007812 C 106.28125 23.015625 104.695312 22.582031 103.3125 21.746094 C 101.933594 20.925781 100.789062 19.761719 99.988281 18.367188 C 98.355469 15.53125 98.355469 12.039062 99.988281 9.203125 C 100.789062 7.820312 101.933594 6.667969 103.3125 5.859375 C 106.144531 4.203125 109.648438 4.203125 112.480469 5.859375 C 113.863281 6.675781 115.015625 7.832031 115.820312 9.222656 C 117.476562 12.058594 117.476562 15.566406 115.820312 18.402344 C 115.015625 19.792969 113.863281 20.949219 112.480469 21.765625 C 111.09375 22.589844 109.507812 23.019531 107.898438 23.007812 Z M 107.898438 19.003906 C 108.800781 19.015625 109.691406 18.769531 110.464844 18.300781 C 111.234375 17.835938 111.867188 17.183594 112.3125 16.402344 C 113.230469 14.789062 113.230469 12.808594 112.3125 11.191406 C 111.867188 10.414062 111.230469 9.761719 110.464844 9.296875 C 109.691406 8.824219 108.804688 8.574219 107.898438 8.582031 C 106.988281 8.574219 106.097656 8.824219 105.328125 9.304688 C 104.566406 9.773438 103.9375 10.425781 103.496094 11.199219 C 103.050781 11.988281 102.820312 12.882812 102.828125 13.789062 C 102.820312 14.703125 103.050781 15.601562 103.496094 16.394531 C 103.933594 17.179688 104.570312 17.832031 105.34375 18.289062 C 106.113281 18.761719 106.996094 19.007812 107.898438 19.003906 Z M 107.898438 19.003906 "/>
<path style=" stroke:none;fill-rule:nonzero;fill:rgb(13.72549%,27.058824%,84.705882%);fill-opacity:1;" d="M 127.574219 23.007812 C 125.140625 23.011719 122.808594 22.046875 121.085938 20.324219 C 119.367188 18.601562 118.402344 16.261719 118.40625 13.828125 C 118.394531 12.195312 118.824219 10.59375 119.648438 9.1875 C 120.457031 7.796875 121.617188 6.644531 123.007812 5.84375 C 124.394531 5.03125 125.96875 4.609375 127.574219 4.617188 C 129.40625 4.59375 131.199219 5.152344 132.695312 6.214844 C 134.1875 7.253906 135.332031 8.726562 135.96875 10.433594 L 131.972656 11.546875 C 131.609375 10.675781 131.003906 9.921875 130.226562 9.378906 C 129.449219 8.832031 128.523438 8.546875 127.574219 8.554688 C 126.664062 8.546875 125.773438 8.796875 125.003906 9.277344 C 124.238281 9.753906 123.609375 10.421875 123.175781 11.210938 C 122.277344 12.84375 122.277344 14.824219 123.175781 16.457031 C 123.605469 17.246094 124.234375 17.90625 125.003906 18.375 C 125.777344 18.84375 126.667969 19.089844 127.574219 19.082031 C 128.527344 19.097656 129.464844 18.808594 130.246094 18.257812 C 131.007812 17.71875 131.605469 16.980469 131.972656 16.121094 L 135.972656 17.234375 C 135.324219 18.921875 134.191406 20.375 132.714844 21.410156 C 131.214844 22.472656 129.5 23.007812 127.574219 23.007812 Z M 127.574219 23.007812 "/>
<path style=" stroke:none;fill-rule:nonzero;fill:rgb(13.72549%,27.058824%,84.705882%);fill-opacity:1;" d="M 146.449219 23.007812 C 144.832031 23.015625 143.246094 22.582031 141.863281 21.746094 C 140.484375 20.921875 139.339844 19.757812 138.539062 18.367188 C 136.90625 15.53125 136.90625 12.039062 138.539062 9.203125 C 139.339844 7.820312 140.484375 6.667969 141.863281 5.859375 C 144.695312 4.203125 148.199219 4.203125 151.03125 5.859375 C 152.414062 6.675781 153.566406 7.832031 154.371094 9.222656 C 156.027344 12.058594 156.027344 15.566406 154.371094 18.402344 C 153.566406 19.792969 152.414062 20.949219 151.03125 21.765625 C 149.644531 22.589844 148.0625 23.019531 146.449219 23.007812 Z M 146.449219 19.003906 C 147.355469 19.015625 148.242188 18.769531 149.015625 18.300781 C 149.785156 17.835938 150.417969 17.183594 150.863281 16.402344 C 151.78125 14.789062 151.78125 12.808594 150.863281 11.191406 C 150.417969 10.414062 149.785156 9.761719 149.015625 9.296875 C 148.246094 8.824219 147.355469 8.574219 146.449219 8.582031 C 145.539062 8.574219 144.648438 8.824219 143.878906 9.304688 C 143.121094 9.773438 142.492188 10.425781 142.046875 11.199219 C 141.601562 11.988281 141.371094 12.882812 141.378906 13.789062 C 141.371094 14.703125 141.601562 15.601562 142.046875 16.394531 C 142.488281 17.179688 143.125 17.832031 143.894531 18.292969 C 144.664062 18.761719 145.546875 19.007812 146.449219 19.003906 Z M 146.449219 19.003906 "/>
<path style=" stroke:none;fill-rule:nonzero;fill:rgb(13.72549%,27.058824%,84.705882%);fill-opacity:1;" d="M 163.808594 23.007812 C 162.085938 23.007812 160.542969 22.574219 159.175781 21.710938 C 157.808594 20.847656 157.128906 19.421875 157.128906 17.425781 C 157.128906 16.167969 157.414062 15.132812 157.984375 14.316406 C 158.554688 13.496094 159.382812 12.890625 160.46875 12.5 C 161.554688 12.105469 162.835938 11.910156 164.3125 11.910156 L 169.550781 11.910156 L 169.550781 10.9375 C 169.550781 10.039062 169.195312 9.378906 168.476562 8.953125 C 167.761719 8.523438 166.820312 8.3125 165.65625 8.3125 C 164.671875 8.3125 163.824219 8.476562 163.121094 8.800781 C 162.425781 9.113281 161.914062 9.726562 161.726562 10.464844 L 157.5625 10.5 C 157.566406 9.363281 157.960938 8.265625 158.675781 7.390625 C 159.394531 6.503906 160.355469 5.820312 161.566406 5.339844 C 162.835938 4.84375 164.191406 4.597656 165.554688 4.613281 C 166.925781 4.605469 168.285156 4.847656 169.5625 5.339844 C 170.804688 5.820312 171.800781 6.496094 172.550781 7.371094 C 173.292969 8.21875 173.695312 9.308594 173.683594 10.433594 L 173.683594 22.738281 L 169.550781 22.738281 L 169.550781 20.519531 C 169.082031 21.144531 168.34375 21.714844 167.335938 22.230469 C 166.328125 22.75 165.152344 23.007812 163.808594 23.007812 Z M 164.179688 19.4375 C 165.066406 19.4375 165.9375 19.230469 166.730469 18.832031 C 167.523438 18.457031 168.21875 17.90625 168.761719 17.21875 C 169.273438 16.59375 169.550781 15.808594 169.550781 15 L 165.121094 15 C 164.269531 15 163.5625 15.113281 163.003906 15.335938 C 162.445312 15.558594 162.039062 15.859375 161.78125 16.242188 C 161.523438 16.628906 161.417969 17.097656 161.496094 17.554688 C 161.5625 18.226562 161.851562 18.710938 162.367188 19.003906 C 162.921875 19.304688 163.546875 19.457031 164.179688 19.441406 Z M 164.179688 19.4375 "/>
<path style=" stroke:none;fill-rule:nonzero;fill:rgb(13.72549%,27.058824%,84.705882%);fill-opacity:1;" d="M 183.824219 23.007812 C 182.597656 23.003906 181.375 22.828125 180.195312 22.484375 C 178.914062 22.105469 177.6875 21.570312 176.535156 20.886719 L 176.535156 16.484375 C 177.410156 17.152344 178.523438 17.773438 179.875 18.347656 C 181.230469 18.925781 182.542969 19.210938 183.820312 19.207031 C 184.308594 19.214844 184.796875 19.152344 185.269531 19.019531 C 185.648438 18.921875 185.996094 18.738281 186.292969 18.484375 C 186.546875 18.257812 186.6875 17.933594 186.679688 17.59375 C 186.679688 17.054688 186.347656 16.625 185.6875 16.296875 C 185.027344 15.972656 183.914062 15.640625 182.347656 15.304688 C 180.195312 14.859375 178.617188 14.230469 177.613281 13.410156 C 176.609375 12.59375 176.105469 11.480469 176.101562 10.066406 C 176.082031 9.011719 176.417969 7.980469 177.058594 7.140625 C 177.699219 6.3125 178.570312 5.6875 179.679688 5.257812 C 180.789062 4.832031 182.035156 4.617188 183.421875 4.621094 C 184.640625 4.609375 185.855469 4.789062 187.015625 5.160156 C 188.140625 5.527344 189.230469 6 190.269531 6.566406 L 190.269531 10.5 C 188.972656 9.714844 187.734375 9.160156 186.558594 8.835938 C 185.382812 8.511719 184.339844 8.347656 183.417969 8.347656 C 182.90625 8.335938 182.398438 8.414062 181.910156 8.570312 C 181.535156 8.683594 181.191406 8.890625 180.917969 9.175781 C 180.695312 9.40625 180.566406 9.710938 180.566406 10.03125 C 180.566406 10.480469 180.796875 10.824219 181.253906 11.074219 C 181.714844 11.324219 182.46875 11.546875 183.519531 11.742188 C 183.8125 11.835938 184.109375 11.910156 184.410156 11.964844 C 184.714844 12.023438 185.03125 12.097656 185.371094 12.191406 C 187.382812 12.707031 188.84375 13.410156 189.75 14.308594 C 190.660156 15.203125 191.113281 16.324219 191.113281 17.671875 C 191.113281 19.507812 190.390625 20.859375 188.945312 21.722656 C 187.5 22.585938 185.792969 23.011719 183.824219 23.007812 Z M 183.824219 23.007812 "/>
<path style=" stroke:none;fill-rule:nonzero;fill:rgb(13.72549%,27.058824%,84.705882%);fill-opacity:1;" d="M 204.878906 22.601562 C 203.042969 23.117188 201.382812 23.242188 199.894531 22.972656 C 198.40625 22.703125 197.230469 22.054688 196.367188 21.023438 C 195.503906 19.992188 195.074219 18.613281 195.074219 16.886719 L 195.105469 8.683594 L 191.878906 8.683594 L 191.878906 4.917969 L 195.105469 4.917969 L 195.105469 0.746094 L 199.40625 0.746094 L 199.40625 4.917969 L 204.679688 4.917969 L 204.679688 8.683594 L 199.40625 8.683594 L 199.371094 16.851562 C 199.359375 17.40625 199.585938 17.941406 199.992188 18.316406 C 200.40625 18.707031 201.027344 18.925781 201.855469 18.972656 C 202.683594 19.015625 203.691406 18.8125 204.878906 18.367188 Z M 204.878906 22.601562 "/>
<path style=" stroke:none;fill-rule:nonzero;fill:rgb(13.72549%,27.058824%,84.705882%);fill-opacity:1;" d="M 37.042969 20.636719 C 33.839844 25.601562 25.769531 26.65625 21.808594 22.085938 C 20.625 20.71875 19.835938 19.8125 19.347656 19.144531 C 19.21875 19.011719 19.222656 18.800781 19.351562 18.671875 C 19.484375 18.539062 19.699219 18.542969 19.828125 18.675781 C 21.925781 20.210938 25.265625 21.417969 29 15.632812 L 37.40625 2.601562 C 38.5 0.902344 40.417969 -0.0859375 42.433594 0.00390625 L 49.902344 0.339844 C 49.949219 0.34375 49.992188 0.371094 50.015625 0.410156 C 50.035156 0.453125 50.035156 0.503906 50.007812 0.546875 L 37.042969 20.636719 "/>
<path style=" stroke:none;fill-rule:nonzero;fill:rgb(13.72549%,27.058824%,84.705882%);fill-opacity:1;" d="M 13.105469 4.363281 C 16.308594 -0.601562 24.382812 -1.65625 28.339844 2.914062 C 29.523438 4.28125 30.3125 5.1875 30.800781 5.855469 C 30.929688 5.988281 30.929688 6.199219 30.796875 6.328125 C 30.664062 6.460938 30.453125 6.457031 30.324219 6.324219 C 28.222656 4.792969 24.882812 3.585938 21.152344 9.371094 L 12.746094 22.402344 C 11.648438 24.101562 9.734375 25.089844 7.714844 24.996094 L 0.25 24.664062 C 0.199219 24.664062 0.15625 24.636719 0.132812 24.59375 C 0.109375 24.550781 0.109375 24.5 0.136719 24.457031 L 13.105469 4.363281 "/>
</g>
</svg>
